<?xml version="1.0" encoding="UTF-8" standalone="no"?>
<svg xmlns:ffdec="https://www.free-decompiler.com/flash" xmlns:xlink="http://www.w3.org/1999/xlink" ffdec:objectType="shape" height="20.85px" width="22.1px" xmlns="http://www.w3.org/2000/svg">
  <g transform="matrix(1.0, 0.0, 0.0, 1.0, -4.15, -2.7)">
    <path d="M20.85 23.55 L26.25 18.15 26.25 23.55 20.85 23.55" fill="#000000" fill-rule="evenodd" stroke="none"/>
    <path d="M6.9 18.75 Q5.1 16.95 4.45 14.55 L8.55 13.45 Q8.9 14.75 9.9 15.75 L6.9 18.75" fill="#0064b5" fill-rule="evenodd" stroke="none"/>
    <path d="M11.15 21.2 Q8.8 20.6 6.9 18.75 L9.9 15.75 Q10.95 16.8 12.25 17.1 L11.15 21.2" fill="#00a3c7" fill-rule="evenodd" stroke="none"/>
    <path d="M16.0 21.2 L13.6 21.55 11.15 21.2 12.25 17.1 13.6 17.3 14.95 17.1 16.0 21.2" fill="#0fad00" fill-rule="evenodd" stroke="none"/>
    <path d="M20.2 18.75 Q18.4 20.6 16.0 21.2 L14.95 17.1 Q16.25 16.8 17.25 15.75 L20.2 18.75" fill="#8cc700" fill-rule="evenodd" stroke="none"/>
    <path d="M22.65 14.55 Q22.05 16.95 20.2 18.75 L17.25 15.75 Q18.25 14.75 18.6 13.45 L22.65 14.55" fill="#ffff00" fill-rule="evenodd" stroke="none"/>
    <path d="M22.65 9.7 L22.95 12.1 22.65 14.55 18.6 13.45 18.7 12.1 18.6 10.8 22.65 9.7" fill="#fec500" fill-rule="evenodd" stroke="none"/>
    <path d="M20.2 5.45 Q22.1 7.3 22.65 9.7 L18.6 10.8 Q18.25 9.5 17.25 8.5 L20.2 5.45" fill="#ff9400" fill-rule="evenodd" stroke="none"/>
    <path d="M16.0 3.0 Q18.4 3.65 20.2 5.45 L17.25 8.5 Q16.25 7.4 14.95 7.1 L16.0 3.0" fill="#ff6600" fill-rule="evenodd" stroke="none"/>
    <path d="M11.15 3.0 L13.6 2.7 15.85 2.95 16.0 3.0 14.95 7.1 13.6 6.95 12.25 7.1 11.15 3.0" fill="#f40000" fill-rule="evenodd" stroke="none"/>
    <path d="M6.9 5.45 Q8.4 3.95 10.2 3.3 L11.15 3.0 12.25 7.1 Q10.95 7.4 9.9 8.5 L6.9 5.45" fill="#c5007c" fill-rule="evenodd" stroke="none"/>
    <path d="M4.45 9.7 Q5.1 7.3 6.9 5.45 L9.9 8.5 Q8.9 9.5 8.55 10.8 L4.45 9.7" fill="#6300a5" fill-rule="evenodd" stroke="none"/>
    <path d="M4.45 14.55 Q4.15 13.4 4.15 12.1 4.15 10.85 4.45 9.7 L8.55 10.8 Q8.4 11.4 8.4 12.1 8.4 12.85 8.55 13.45 L4.45 14.55" fill="#0010a5" fill-rule="evenodd" stroke="none"/>
  </g>
</svg>
