<svg id="SvgjsSvg1001" width="288" height="288" xmlns="http://www.w3.org/2000/svg" version="1.1" xmlns:xlink="http://www.w3.org/1999/xlink" xmlns:svgjs="http://svgjs.com/svgjs"><defs id="SvgjsDefs1002"></defs><g id="SvgjsG1008"><svg xmlns="http://www.w3.org/2000/svg" xmlns:ffdec="https://www.free-decompiler.com/flash" ffdec:objecttype="shape" viewBox="0 0 10 13.7" width="288" height="288"><path fill="#686868" fill-rule="evenodd" d="M7.75 7.5 L7.55 7.95 7.55 14.35 7.75 14.8 8.15 14.95 8.6 14.8 8.75 14.35 8.75 7.95 8.6 7.5 8.15 7.3 7.75 7.5 M6.25 6.6 L6.25 6.45 6.35 6.4 14.75 6.4 14.75 11.7 14.8 13.05 14.75 14.35 Q14.6 15.65 13.8 16.0 L12.25 16.2 10.5 16.15 9.25 16.15 8.05 16.15 Q6.85 16.0 6.45 15.25 6.15 14.65 6.2 13.3 L6.25 11.0 6.25 6.6 M12.9 7.3 Q12.65 7.3 12.5 7.5 L12.3 7.95 12.3 14.35 12.5 14.8 12.9 14.95 13.35 14.8 13.5 14.35 13.5 7.95 13.35 7.5 12.9 7.3 M11.15 7.95 L10.95 7.5 10.55 7.3 10.1 7.5 9.95 7.95 9.95 14.35 10.1 14.8 10.55 14.95 10.95 14.8 11.15 14.35 11.15 7.95 M11.85 2.55 L12.15 2.85 12.3 3.4 8.8 3.4 Q8.7 2.7 9.3 2.5 L10.55 2.5 11.85 2.55 M10.7 3.9 L12.55 3.9 14.15 4.05 Q15.7 4.4 15.5 5.75 L10.55 5.8 5.5 5.85 Q5.45 4.95 5.9 4.5 6.3 4.1 7.05 3.95 L8.75 3.85 10.7 3.9" transform="translate(-5.5 -2.5)" class="colorfff svgShape"></path></svg></g></svg>