<?xml version="1.0" encoding="UTF-8" standalone="no"?>
<svg xmlns:ffdec="https://www.free-decompiler.com/flash" xmlns:xlink="http://www.w3.org/1999/xlink" ffdec:objectType="shape" height="17.15px" width="17.0px" xmlns="http://www.w3.org/2000/svg">
  <g transform="matrix(1.0, 0.0, 0.0, 1.0, -0.05, -0.05)">
    <path d="M16.55 3.15 L16.55 9.0 Q16.55 11.6 14.05 11.6 L10.4 11.6 8.15 13.7 Q6.95 14.65 4.15 16.2 6.7 13.15 6.7 11.6 L3.1 11.6 Q0.55 11.6 0.55 9.0 L0.55 3.15 Q0.55 0.55 3.1 0.55 L14.4 0.55 Q15.65 0.55 16.1 1.2 16.55 1.8 16.55 3.15" fill="url(#gradient0)" fill-rule="evenodd" stroke="none"/>
    <path d="M14.15 11.55 Q16.55 11.55 16.55 9.05 L16.55 3.05 Q16.55 1.7 16.15 1.15 15.7 0.55 14.5 0.55 L3.05 0.55 Q0.55 0.55 0.55 3.05 L0.55 9.05 Q0.55 11.55 3.05 11.55 L6.55 11.55 Q6.2 13.8 4.05 16.05 7.9 14.65 10.6 11.55 L14.15 11.55 Z" fill="none" stroke="#525252" stroke-linecap="butt" stroke-linejoin="miter-clip" stroke-miterlimit="10.0" stroke-width="1.0"/>
  </g>
  <defs>
    <linearGradient gradientTransform="matrix(0.0, 0.0091, -0.0091, 0.0, 8.8, 8.45)" gradientUnits="userSpaceOnUse" id="gradient0" spreadMethod="pad" x1="-819.2" x2="819.2">
      <stop offset="0.0" stop-color="#727272"/>
      <stop offset="1.0" stop-color="#191919"/>
    </linearGradient>
  </defs>
</svg>
